<mxfile>
    <diagram id="es6xqziEnJ2Jqfx3n4ws" name="Page-1">
        <mxGraphModel dx="1395" dy="955" grid="1" gridSize="10" guides="1" tooltips="1" connect="1" arrows="1" fold="1" page="1" pageScale="1" pageWidth="600" pageHeight="900" math="0" shadow="0">
            <root>
                <mxCell id="0"/>
                <mxCell id="1" parent="0"/>
                <mxCell id="2" value="" style="aspect=fixed;html=1;points=[];align=center;image;fontSize=12;image=img/lib/azure2/compute/Function_Apps.svg;" vertex="1" parent="1">
                    <mxGeometry x="266" y="148" width="68" height="60" as="geometry"/>
                </mxCell>
                <mxCell id="3" value="" style="aspect=fixed;html=1;points=[];align=center;image;fontSize=12;image=img/lib/azure2/compute/Function_Apps.svg;" vertex="1" parent="1">
                    <mxGeometry x="266" y="387" width="68" height="60" as="geometry"/>
                </mxCell>
                <mxCell id="5" value="" style="aspect=fixed;html=1;points=[];align=center;image;fontSize=12;image=img/lib/azure2/security/Key_Vaults.svg;" vertex="1" parent="1">
                    <mxGeometry x="79" y="148" width="60" height="60" as="geometry"/>
                </mxCell>
                <mxCell id="8" value="" style="aspect=fixed;html=1;points=[];align=center;image;fontSize=12;image=img/lib/azure2/general/Storage_Container.svg;" vertex="1" parent="1">
                    <mxGeometry x="268" y="518" width="64" height="52" as="geometry"/>
                </mxCell>
                <mxCell id="9" value="" style="aspect=fixed;html=1;points=[];align=center;image;fontSize=12;image=img/lib/azure2/storage/Data_Share_Invitations.svg;" vertex="1" parent="1">
                    <mxGeometry x="267" y="278" width="64" height="43" as="geometry"/>
                </mxCell>
                <mxCell id="10" value="" style="endArrow=classic;startArrow=classic;html=1;" edge="1" parent="1">
                    <mxGeometry width="50" height="50" relative="1" as="geometry">
                        <mxPoint x="140" y="178" as="sourcePoint"/>
                        <mxPoint x="260" y="178" as="targetPoint"/>
                    </mxGeometry>
                </mxCell>
                <mxCell id="11" value="1" style="text;html=1;resizable=0;autosize=1;align=center;verticalAlign=middle;points=[];fillColor=none;strokeColor=none;rounded=0;fontSize=24;" vertex="1" parent="1">
                    <mxGeometry x="184" y="148" width="30" height="30" as="geometry"/>
                </mxCell>
                <mxCell id="12" value="EmailPoller" style="text;html=1;resizable=0;autosize=1;align=center;verticalAlign=middle;points=[];fillColor=none;strokeColor=none;rounded=0;fontSize=16;" vertex="1" parent="1">
                    <mxGeometry x="250" y="120" width="100" height="20" as="geometry"/>
                </mxCell>
                <mxCell id="13" value="" style="endArrow=classic;startArrow=classic;html=1;fontSize=16;" edge="1" parent="1" source="2" target="9">
                    <mxGeometry width="50" height="50" relative="1" as="geometry">
                        <mxPoint x="364" y="503" as="sourcePoint"/>
                        <mxPoint x="360" y="238" as="targetPoint"/>
                    </mxGeometry>
                </mxCell>
                <mxCell id="14" value="2" style="text;html=1;resizable=0;autosize=1;align=center;verticalAlign=middle;points=[];fillColor=none;strokeColor=none;rounded=0;fontSize=24;" vertex="1" parent="1">
                    <mxGeometry x="270.81" y="228" width="30" height="30" as="geometry"/>
                </mxCell>
                <mxCell id="15" value="" style="endArrow=classic;html=1;fontSize=16;" edge="1" parent="1">
                    <mxGeometry width="50" height="50" relative="1" as="geometry">
                        <mxPoint x="340" y="178" as="sourcePoint"/>
                        <mxPoint x="460" y="178" as="targetPoint"/>
                    </mxGeometry>
                </mxCell>
                <mxCell id="17" value="" style="aspect=fixed;html=1;points=[];align=center;image;fontSize=12;image=img/lib/mscae/Service_Bus.svg;" vertex="1" parent="1">
                    <mxGeometry x="461" y="148" width="62" height="62" as="geometry"/>
                </mxCell>
                <mxCell id="18" value="" style="aspect=fixed;html=1;points=[];align=center;image;fontSize=12;image=img/lib/azure2/general/Resource_Groups.svg;" vertex="1" parent="1">
                    <mxGeometry x="10" y="10" width="68" height="64" as="geometry"/>
                </mxCell>
                <mxCell id="19" value="RG-Saubian" style="text;html=1;resizable=0;autosize=1;align=center;verticalAlign=middle;points=[];fillColor=none;strokeColor=none;rounded=0;fontSize=45;" vertex="1" parent="1">
                    <mxGeometry x="92" y="10" width="260" height="60" as="geometry"/>
                </mxCell>
                <mxCell id="20" value="" style="html=1;verticalLabelPosition=bottom;align=center;labelBackgroundColor=#ffffff;verticalAlign=top;strokeWidth=2;strokeColor=#0080F0;shadow=0;dashed=0;shape=mxgraph.ios7.icons.clock;fontSize=45;" vertex="1" parent="1">
                    <mxGeometry x="259.81" y="148" width="11" height="11" as="geometry"/>
                </mxCell>
                <mxCell id="21" value="3" style="text;html=1;resizable=0;autosize=1;align=center;verticalAlign=middle;points=[];fillColor=none;strokeColor=none;rounded=0;fontSize=24;" vertex="1" parent="1">
                    <mxGeometry x="384" y="148" width="30" height="30" as="geometry"/>
                </mxCell>
                <mxCell id="22" value="RealmSeal" style="text;html=1;resizable=0;autosize=1;align=center;verticalAlign=middle;points=[];fillColor=none;strokeColor=none;rounded=0;fontSize=16;" vertex="1" parent="1">
                    <mxGeometry x="64" y="120" width="90" height="20" as="geometry"/>
                </mxCell>
                <mxCell id="23" value="Saubian.TheLoft" style="text;html=1;resizable=0;autosize=1;align=center;verticalAlign=middle;points=[];fillColor=none;strokeColor=none;rounded=0;fontSize=16;" vertex="1" parent="1">
                    <mxGeometry x="428" y="120" width="130" height="20" as="geometry"/>
                </mxCell>
                <mxCell id="24" value="[email_address]" style="text;html=1;resizable=0;autosize=1;align=center;verticalAlign=middle;points=[];fillColor=none;strokeColor=none;rounded=0;fontSize=16;" vertex="1" parent="1">
                    <mxGeometry x="334" y="289.5" width="130" height="20" as="geometry"/>
                </mxCell>
                <mxCell id="25" value="SilverSickle" style="text;html=1;resizable=0;autosize=1;align=center;verticalAlign=middle;points=[];fillColor=none;strokeColor=none;rounded=0;fontSize=16;" vertex="1" parent="1">
                    <mxGeometry x="250" y="360" width="100" height="20" as="geometry"/>
                </mxCell>
                <mxCell id="26" value="" style="aspect=fixed;html=1;points=[];align=center;image;fontSize=12;image=img/lib/mscae/Service_Bus.svg;" vertex="1" parent="1">
                    <mxGeometry x="260" y="387" width="16" height="16" as="geometry"/>
                </mxCell>
                <mxCell id="27" value="" style="aspect=fixed;html=1;points=[];align=center;image;fontSize=12;image=img/lib/mscae/Service_Bus.svg;" vertex="1" parent="1">
                    <mxGeometry x="77" y="388" width="62" height="62" as="geometry"/>
                </mxCell>
                <mxCell id="28" value="" style="endArrow=classic;html=1;fontSize=16;exitX=1.013;exitY=0.483;exitDx=0;exitDy=0;exitPerimeter=0;" edge="1" parent="1" source="27">
                    <mxGeometry width="50" height="50" relative="1" as="geometry">
                        <mxPoint x="200" y="438" as="sourcePoint"/>
                        <mxPoint x="260" y="417" as="targetPoint"/>
                    </mxGeometry>
                </mxCell>
                <mxCell id="29" value="Saubian.TheLoft" style="text;html=1;resizable=0;autosize=1;align=center;verticalAlign=middle;points=[];fillColor=none;strokeColor=none;rounded=0;fontSize=16;" vertex="1" parent="1">
                    <mxGeometry x="43" y="360" width="130" height="20" as="geometry"/>
                </mxCell>
                <mxCell id="30" value="" style="aspect=fixed;html=1;points=[];align=center;image;fontSize=12;image=img/lib/mscae/Service_Bus.svg;" vertex="1" parent="1">
                    <mxGeometry x="461" y="387" width="62" height="62" as="geometry"/>
                </mxCell>
                <mxCell id="31" value="Saubian.TheLoft" style="text;html=1;resizable=0;autosize=1;align=center;verticalAlign=middle;points=[];fillColor=none;strokeColor=none;rounded=0;fontSize=16;" vertex="1" parent="1">
                    <mxGeometry x="427" y="360" width="130" height="20" as="geometry"/>
                </mxCell>
                <mxCell id="32" value="" style="endArrow=classic;html=1;fontSize=16;" edge="1" parent="1">
                    <mxGeometry width="50" height="50" relative="1" as="geometry">
                        <mxPoint x="340" y="418" as="sourcePoint"/>
                        <mxPoint x="460" y="418" as="targetPoint"/>
                    </mxGeometry>
                </mxCell>
                <mxCell id="33" value="1" style="text;html=1;resizable=0;autosize=1;align=center;verticalAlign=middle;points=[];fillColor=none;strokeColor=none;rounded=0;fontSize=24;" vertex="1" parent="1">
                    <mxGeometry x="184" y="387" width="30" height="30" as="geometry"/>
                </mxCell>
                <mxCell id="34" value="3" style="text;html=1;resizable=0;autosize=1;align=center;verticalAlign=middle;points=[];fillColor=none;strokeColor=none;rounded=0;fontSize=24;" vertex="1" parent="1">
                    <mxGeometry x="384" y="388" width="30" height="30" as="geometry"/>
                </mxCell>
                <mxCell id="35" value="" style="endArrow=classic;startArrow=classic;html=1;fontSize=16;entryX=0.498;entryY=-0.039;entryDx=0;entryDy=0;entryPerimeter=0;" edge="1" parent="1" target="8">
                    <mxGeometry width="50" height="50" relative="1" as="geometry">
                        <mxPoint x="300" y="458" as="sourcePoint"/>
                        <mxPoint x="307.66" y="543.12" as="targetPoint"/>
                    </mxGeometry>
                </mxCell>
                <mxCell id="36" value="2" style="text;html=1;resizable=0;autosize=1;align=center;verticalAlign=middle;points=[];fillColor=none;strokeColor=none;rounded=0;fontSize=24;" vertex="1" parent="1">
                    <mxGeometry x="268" y="473" width="30" height="30" as="geometry"/>
                </mxCell>
                <mxCell id="37" value="" style="aspect=fixed;html=1;points=[];align=center;image;fontSize=12;image=img/lib/azure2/compute/Function_Apps.svg;" vertex="1" parent="1">
                    <mxGeometry x="266" y="667" width="68" height="60" as="geometry"/>
                </mxCell>
                <mxCell id="38" value="" style="aspect=fixed;html=1;points=[];align=center;image;fontSize=12;image=img/lib/azure2/general/Storage_Container.svg;" vertex="1" parent="1">
                    <mxGeometry x="268" y="798" width="64" height="52" as="geometry"/>
                </mxCell>
                <mxCell id="39" value="TamOShanter" style="text;html=1;resizable=0;autosize=1;align=center;verticalAlign=middle;points=[];fillColor=none;strokeColor=none;rounded=0;fontSize=16;" vertex="1" parent="1">
                    <mxGeometry x="245" y="632" width="110" height="20" as="geometry"/>
                </mxCell>
                <mxCell id="40" value="" style="aspect=fixed;html=1;points=[];align=center;image;fontSize=12;image=img/lib/mscae/Service_Bus.svg;" vertex="1" parent="1">
                    <mxGeometry x="260" y="667" width="16" height="16" as="geometry"/>
                </mxCell>
                <mxCell id="41" value="" style="aspect=fixed;html=1;points=[];align=center;image;fontSize=12;image=img/lib/mscae/Service_Bus.svg;" vertex="1" parent="1">
                    <mxGeometry x="77" y="667" width="62" height="62" as="geometry"/>
                </mxCell>
                <mxCell id="42" value="" style="endArrow=classic;html=1;fontSize=16;" edge="1" parent="1">
                    <mxGeometry width="50" height="50" relative="1" as="geometry">
                        <mxPoint x="140" y="698" as="sourcePoint"/>
                        <mxPoint x="260" y="698" as="targetPoint"/>
                    </mxGeometry>
                </mxCell>
                <mxCell id="43" value="Saubian.TheLoft" style="text;html=1;resizable=0;autosize=1;align=center;verticalAlign=middle;points=[];fillColor=none;strokeColor=none;rounded=0;fontSize=16;" vertex="1" parent="1">
                    <mxGeometry x="40" y="632" width="130" height="20" as="geometry"/>
                </mxCell>
                <mxCell id="45" value="Alexa" style="text;html=1;resizable=0;autosize=1;align=center;verticalAlign=middle;points=[];fillColor=none;strokeColor=none;rounded=0;fontSize=16;" vertex="1" parent="1">
                    <mxGeometry x="463" y="632" width="60" height="20" as="geometry"/>
                </mxCell>
                <mxCell id="46" value="" style="endArrow=classic;html=1;fontSize=16;" edge="1" parent="1">
                    <mxGeometry width="50" height="50" relative="1" as="geometry">
                        <mxPoint x="340" y="698" as="sourcePoint"/>
                        <mxPoint x="460" y="698" as="targetPoint"/>
                    </mxGeometry>
                </mxCell>
                <mxCell id="47" value="1" style="text;html=1;resizable=0;autosize=1;align=center;verticalAlign=middle;points=[];fillColor=none;strokeColor=none;rounded=0;fontSize=24;" vertex="1" parent="1">
                    <mxGeometry x="184" y="657" width="30" height="30" as="geometry"/>
                </mxCell>
                <mxCell id="48" value="3" style="text;html=1;resizable=0;autosize=1;align=center;verticalAlign=middle;points=[];fillColor=none;strokeColor=none;rounded=0;fontSize=24;" vertex="1" parent="1">
                    <mxGeometry x="384" y="658" width="30" height="30" as="geometry"/>
                </mxCell>
                <mxCell id="49" value="" style="endArrow=classic;startArrow=classic;html=1;fontSize=16;entryX=0.498;entryY=-0.039;entryDx=0;entryDy=0;entryPerimeter=0;" edge="1" parent="1" target="38">
                    <mxGeometry width="50" height="50" relative="1" as="geometry">
                        <mxPoint x="300" y="738" as="sourcePoint"/>
                        <mxPoint x="299.66" y="817.12" as="targetPoint"/>
                    </mxGeometry>
                </mxCell>
                <mxCell id="50" value="2" style="text;html=1;resizable=0;autosize=1;align=center;verticalAlign=middle;points=[];fillColor=none;strokeColor=none;rounded=0;fontSize=24;" vertex="1" parent="1">
                    <mxGeometry x="268" y="753" width="30" height="30" as="geometry"/>
                </mxCell>
                <mxCell id="51" value="" style="aspect=fixed;html=1;points=[];align=center;image;fontSize=12;image=img/lib/azure2/devops/Application_Insights.svg;" vertex="1" parent="1">
                    <mxGeometry x="259.81" y="187" width="14.67" height="21" as="geometry"/>
                </mxCell>
                <mxCell id="66" value="" style="aspect=fixed;html=1;points=[];align=center;image;fontSize=12;image=img/lib/azure2/devops/Application_Insights.svg;" vertex="1" parent="1">
                    <mxGeometry x="260.51" y="428" width="13.97" height="20" as="geometry"/>
                </mxCell>
                <mxCell id="67" value="" style="aspect=fixed;html=1;points=[];align=center;image;fontSize=12;image=img/lib/azure2/devops/Application_Insights.svg;" vertex="1" parent="1">
                    <mxGeometry x="260.51" y="707" width="13.97" height="20" as="geometry"/>
                </mxCell>
                <mxCell id="68" value="" style="outlineConnect=0;dashed=0;verticalLabelPosition=bottom;verticalAlign=top;align=center;html=1;shape=mxgraph.aws3.alexa_voice_service;fillColor=#5294CF;gradientColor=none;fontSize=45;" vertex="1" parent="1">
                    <mxGeometry x="463" y="667" width="60" height="63" as="geometry"/>
                </mxCell>
                <mxCell id="70" value="" style="aspect=fixed;html=1;points=[];align=center;image;fontSize=12;image=img/lib/azure2/devops/Application_Insights.svg;" vertex="1" parent="1">
                    <mxGeometry x="260.51" y="428" width="13.97" height="20" as="geometry"/>
                </mxCell>
            </root>
        </mxGraphModel>
    </diagram>
</mxfile>